<svg version="1.1" id="Layer_1" xmlns="http://www.w3.org/2000/svg" xmlns:xlink="http://www.w3.org/1999/xlink" x="0px" y="0px"
	 width="100%" viewBox="0 0 1024 544" enable-background="new 0 0 1024 544" xml:space="preserve">
<path fill="#000000" opacity="1.000000" stroke="none" 
	d="
M399.675079,137.430191 
	C402.512909,141.018143 403.381744,144.811462 403.345917,148.944183 
	C403.277954,156.776306 403.301483,164.609634 403.355133,172.442001 
	C403.364685,173.832153 402.789673,175.965836 404.823944,176.145554 
	C407.296234,176.363983 406.973877,174.043594 406.983154,172.485519 
	C407.059540,159.653793 407.065796,146.821655 407.092102,133.989639 
	C407.119507,120.644012 412.480255,115.235458 425.932831,115.116066 
	C429.091370,115.088036 432.273163,115.160255 435.408356,115.509277 
	C444.034607,116.469620 449.146698,122.121574 449.282745,130.890488 
	C449.406799,138.888000 449.424103,146.890808 449.273773,154.887238 
	C449.211761,158.186508 450.099030,159.716156 453.740845,159.704819 
	C487.904510,159.598480 522.068665,159.590988 556.232422,159.659729 
	C559.856079,159.667023 560.791443,158.063385 560.731934,154.786758 
	C560.598755,147.456528 560.655212,140.121674 560.716003,132.789383 
	C560.795044,123.259361 566.729980,117.091476 576.155579,116.775871 
	C579.984314,116.647682 583.826233,116.617317 587.652588,116.774818 
	C596.467346,117.137665 602.279297,123.021759 602.388367,131.757309 
	C602.554810,145.078903 602.577087,158.402267 602.692444,171.724579 
	C602.708130,173.530579 601.489014,176.424179 604.658936,176.305832 
	C607.490417,176.200119 606.650452,173.298737 606.669739,171.460602 
	C606.750244,163.795425 606.653137,156.128540 606.704468,148.462845 
	C606.773254,138.191956 612.741028,132.336990 623.361633,132.017929 
	C633.963196,131.699463 640.831055,137.681122 641.166138,147.952316 
	C641.426880,155.943329 641.190063,163.949677 641.266479,171.948334 
	C641.282593,173.637115 640.546570,175.900040 643.151917,176.470322 
	C645.860291,177.063126 646.459351,175.205322 646.983948,173.056976 
	C647.451904,171.140472 648.809753,169.779541 650.957520,169.959579 
	C653.354797,170.160522 653.964233,171.950958 654.590454,174.046021 
	C656.299500,179.764114 655.790100,185.344696 654.393738,190.997757 
	C653.948120,192.801880 653.203003,194.170120 651.345215,194.485016 
	C649.244141,194.841156 647.691650,193.765503 647.094360,191.823059 
	C646.479919,189.824997 646.157410,187.730499 643.335022,188.345551 
	C640.441833,188.976013 641.295105,191.431427 641.273071,193.256470 
	C641.182312,200.754761 641.307068,208.255630 641.219849,215.753998 
	C641.091553,226.787399 635.012390,232.352951 623.305054,232.304016 
	C612.654602,232.259506 606.754395,226.312164 606.699707,215.497452 
	C606.661804,207.998230 606.752686,200.497803 606.645020,192.999939 
	C606.622131,191.400101 607.568604,188.623550 604.781372,188.735214 
	C602.304321,188.834473 602.947693,191.521286 602.921875,193.211365 
	C602.722778,206.203491 602.503967,219.197037 602.509094,232.190048 
	C602.513489,243.294754 596.858032,249.200394 585.722534,249.271576 
	C582.389709,249.292892 579.049805,249.393112 575.724854,249.225311 
	C566.800537,248.774872 560.870300,242.685806 560.736877,233.765610 
	C560.619751,225.934570 560.579346,218.097794 560.753601,210.269073 
	C560.831482,206.769653 559.922485,205.129044 556.041321,205.140747 
	C522.044312,205.243347 488.046722,205.243881 454.049683,205.139420 
	C450.248169,205.127731 449.145966,206.582230 449.251495,210.169571 
	C449.452332,216.996475 449.332886,223.833527 449.306519,230.666214 
	C449.263031,241.934326 442.636261,248.184998 431.286865,247.706039 
	C428.957397,247.607712 426.628082,247.464737 424.297607,247.437531 
	C412.872314,247.304092 407.189545,241.617371 407.135132,230.146729 
	C407.078247,218.160233 407.111908,206.173126 406.995667,194.187332 
	C406.976624,192.220154 407.862091,189.762772 405.199524,188.516098 
	C402.590271,189.306580 403.378876,191.460724 403.361267,193.107010 
	C403.279480,200.772217 403.389160,208.439468 403.306458,216.104660 
	C403.195312,226.404709 397.094879,232.255295 386.572113,232.300308 
	C375.217072,232.348892 368.981232,226.725159 368.815826,216.089920 
	C368.694031,208.259003 368.803223,200.424683 368.746033,192.592346 
	C368.733307,190.849136 369.192871,188.713547 366.518677,188.299240 
	C364.037201,187.914795 363.504486,189.523865 362.997986,191.482834 
	C362.500916,193.405243 361.130585,194.668686 358.969482,194.507629 
	C356.787292,194.345016 356.098022,192.777069 355.432648,190.897125 
	C353.294373,184.856018 354.650635,178.913803 355.648376,172.955627 
	C355.959137,171.099625 357.277863,170.023483 359.142853,169.961411 
	C361.308411,169.889313 362.556915,171.325516 363.017273,173.213242 
	C363.484406,175.128799 363.801208,176.898849 366.386230,176.482300 
	C368.950562,176.069077 368.755127,174.043121 368.762878,172.228653 
	C368.794189,164.896042 368.873657,157.561630 368.751038,150.230942 
	C368.630646,143.031601 370.456543,136.605453 377.600555,133.807190 
	C385.232300,130.817871 392.957184,130.814316 399.675079,137.430191 
M429.381042,126.360435 
	C418.738464,126.397102 418.390472,126.757561 418.392822,137.297134 
	C418.399292,166.281555 418.396362,195.265961 418.389862,224.250381 
	C418.387024,236.934464 418.727631,237.058243 431.329163,236.300751 
	C436.218140,236.006866 437.964600,234.325989 437.936798,229.363434 
	C437.758453,197.535309 437.835236,165.705765 437.803833,133.876740 
	C437.797363,127.297592 437.077606,126.627937 429.381042,126.360435 
M591.578247,134.099457 
	C591.524719,129.605057 589.104248,127.891197 584.815125,128.242218 
	C583.326721,128.364029 581.819885,128.256332 580.321472,128.260681 
	C572.459412,128.283478 572.198303,128.535522 572.197510,136.445435 
	C572.194641,166.413376 572.206787,196.381317 572.198547,226.349258 
	C572.195374,237.874649 572.177307,237.874649 583.569031,237.800934 
	C590.908447,237.753433 591.583557,237.082443 591.584534,229.816711 
	C591.588745,198.202744 591.592102,166.588776 591.578247,134.099457 
M482.499969,193.706100 
	C505.964935,193.706635 529.429871,193.716354 552.894836,193.701645 
	C559.263855,193.697647 559.549438,193.377975 559.576721,186.853867 
	C559.589233,183.858414 559.596985,180.862488 559.558594,177.867386 
	C559.478027,171.580826 558.994080,171.054733 552.686829,171.049377 
	C520.901001,171.022400 489.115173,171.027954 457.329346,171.026398 
	C456.331329,171.026352 455.333282,171.096878 454.335327,171.093765 
	C451.653107,171.085449 450.402649,172.384552 450.426727,175.087311 
	C450.468262,179.746460 450.538269,184.411194 450.359802,189.064514 
	C450.227783,192.505875 451.585785,193.805237 455.040344,193.747635 
	C463.857971,193.600525 472.679810,193.702911 482.499969,193.706100 
M380.306061,164.500748 
	C380.309387,181.477386 380.352173,198.454193 380.285858,215.430557 
	C380.270905,219.261017 381.968689,220.800827 385.725616,220.823318 
	C389.455902,220.845627 391.801544,219.881927 391.787537,215.551956 
	C391.715424,193.249573 391.718903,170.946793 391.768311,148.644302 
	C391.777100,144.671753 389.642334,143.404770 386.109100,143.398331 
	C382.630463,143.391983 380.272308,144.518387 380.311279,148.522110 
	C380.359863,153.514694 380.312439,158.508179 380.306061,164.500748 
M618.243652,206.476715 
	C618.242310,209.138016 618.336182,211.803574 618.217102,214.459595 
	C618.043091,218.336700 618.973694,220.827438 623.649597,220.840683 
	C628.229126,220.853653 629.771851,218.938492 629.746948,214.516342 
	C629.626099,193.060104 629.649353,171.602646 629.731628,150.146042 
	C629.747437,146.027023 628.694824,143.385498 623.951050,143.359299 
	C619.182678,143.332977 618.161316,145.955307 618.185059,150.095062 
	C618.291077,168.557373 618.238342,187.020615 618.243652,206.476715 
z"/>
<path fill="#000000" opacity="1.000000" stroke="none" 
	d="
M809.779541,330.267212 
	C813.288025,336.260681 816.601929,341.946472 820.506165,348.645203 
	C822.449402,335.088623 825.109009,322.799194 827.670532,310.489990 
	C830.955811,294.703278 834.241943,278.916779 837.540894,263.132935 
	C838.390686,259.067169 845.229614,255.232590 848.955933,256.713745 
	C850.874084,257.476166 850.836914,259.388275 851.109863,260.913788 
	C855.880676,287.577393 860.578491,314.254059 865.284119,340.929291 
	C865.688354,343.220337 865.898193,345.554810 866.445129,347.809296 
	C867.138977,350.669586 866.886230,352.672882 863.390259,353.192261 
	C860.228271,353.662018 858.976196,352.486633 858.437683,349.337524 
	C855.635010,332.949066 852.583130,316.603394 849.704224,300.227692 
	C847.949280,290.245087 846.349915,280.235107 844.496643,269.135132 
	C838.960876,296.465057 833.633728,322.759583 828.311035,349.055023 
	C827.915283,351.010162 827.583191,352.978577 827.165527,354.928833 
	C826.589294,357.619171 825.836121,359.893341 822.380920,360.413330 
	C819.048889,360.914795 817.547180,359.306580 816.052307,356.851288 
	C803.491882,336.220245 790.875916,315.622986 778.267395,295.021240 
	C775.929932,291.201782 773.550537,287.407990 770.409180,282.342621 
	C772.683960,294.696747 774.721985,305.631836 776.706848,316.576599 
	C779.463501,331.777008 782.124023,346.995117 784.958557,362.180847 
	C785.571411,365.464172 784.844604,367.080719 781.306458,367.688660 
	C777.949463,368.265442 777.244568,366.562988 776.789917,363.978851 
	C771.749390,335.331451 766.660706,306.692474 761.678528,278.034973 
	C761.304260,275.882507 759.313171,273.197998 763.033752,271.666840 
	C768.111938,269.576965 772.341125,270.073608 774.494568,273.503326 
	C781.138489,284.085083 787.698242,294.719727 794.290588,305.333862 
	C799.388794,313.542358 804.486877,321.751007 809.779541,330.267212 
z"/>
<path fill="#000000" opacity="1.000000" stroke="none" 
	d="
M626.060791,386.357147 
	C606.410400,386.026642 591.435852,374.443512 585.776917,355.111023 
	C581.659241,341.044067 581.339600,326.967712 586.614258,312.977386 
	C597.303467,284.626190 631.401123,280.804108 649.398132,290.636810 
	C654.331238,293.332031 658.137512,297.225189 661.180603,301.928894 
	C665.073120,307.945709 664.674438,309.068451 657.329163,311.648590 
	C656.871460,311.077728 656.222412,310.514740 655.879639,309.804016 
	C649.956665,297.523346 639.209412,293.190674 626.682739,293.667328 
	C612.829224,294.194427 601.728271,300.252014 595.696777,313.603790 
	C587.183594,332.449127 591.705505,358.911987 605.564392,371.086029 
	C619.825928,383.613770 645.195740,380.719696 655.237488,365.444061 
	C658.764282,360.079132 659.814331,354.163177 659.752747,347.845062 
	C659.716858,344.166290 658.392090,342.790131 654.676514,343.072754 
	C647.210205,343.640686 639.723572,343.954102 632.241638,344.291412 
	C630.618774,344.364563 628.914856,344.810028 627.366699,343.897675 
	C625.824219,337.244080 625.888306,337.064148 632.313843,336.603271 
	C642.273010,335.889008 652.246887,335.374115 662.201294,334.602814 
	C665.765137,334.326691 667.208679,335.356476 667.376709,339.194000 
	C667.951355,352.320618 668.821106,365.436554 669.768494,378.542786 
	C669.953674,381.105103 669.291504,382.259186 666.762329,382.574524 
	C663.948486,382.925354 662.824829,381.753204 662.671265,379.005035 
	C662.486023,375.689301 662.021240,372.389221 661.569397,368.042999 
	C653.433167,382.012360 641.264709,386.782532 626.060791,386.357147 
z"/>
<path fill="#000000" opacity="1.000000" stroke="none" 
	d="
M295.825256,367.957794 
	C272.723969,382.654114 227.366211,371.924500 227.617172,329.311584 
	C227.710739,313.424500 230.646790,298.442444 241.905670,286.391602 
	C254.934433,272.446411 271.210327,270.867889 288.361938,275.999023 
	C304.812439,280.920441 314.842712,292.424622 317.265259,309.529633 
	C320.148499,329.886963 316.470276,348.613922 301.182648,363.708771 
	C299.656097,365.216064 297.822357,366.412201 295.825256,367.957794 
M304.644196,344.112274 
	C309.054626,333.085968 310.864685,321.784332 308.697479,309.943634 
	C305.932770,294.838348 295.558044,284.639771 279.619873,281.653351 
	C265.460480,279.000214 251.789444,285.086060 244.207916,297.653259 
	C237.519409,308.740143 235.578873,321.020905 236.567764,333.666840 
	C237.169434,341.360962 239.866989,348.567230 245.147339,354.563385 
	C262.023132,373.726868 292.198120,368.768494 304.644196,344.112274 
z"/>
<path fill="#000000" opacity="1.000000" stroke="none" 
	d="
M514.208496,374.976746 
	C514.015991,379.126221 513.788452,382.779297 513.655090,386.435791 
	C513.529907,389.869568 511.458679,390.432709 508.578979,390.205231 
	C505.594025,389.969421 505.293335,388.253571 505.424561,385.725159 
	C506.045685,373.758759 505.246918,361.741486 506.624481,349.801422 
	C507.082458,345.831879 505.820221,344.216858 501.490692,344.177155 
	C486.014557,344.035217 470.542236,343.487701 455.068054,343.112183 
	C447.925873,342.938843 447.612518,343.265869 447.397705,350.631897 
	C447.072754,361.775299 447.604858,372.931274 446.532440,384.072235 
	C446.174744,387.788208 444.495972,388.453369 441.382660,388.265808 
	C438.251862,388.077179 438.219421,386.162048 438.302948,383.755859 
	C438.805176,369.288147 439.239319,354.817871 439.637817,340.346832 
	C440.045471,325.540985 440.404144,310.733673 440.740112,295.925964 
	C440.805359,293.051178 440.965179,290.686340 444.917206,290.666229 
	C449.149719,290.644714 449.332062,293.147614 449.235870,296.242279 
	C448.889496,307.387695 448.710999,318.539978 448.209198,329.677979 
	C448.029846,333.659332 449.516968,334.821503 453.355865,334.899811 
	C469.827667,335.235748 486.298157,335.739563 502.759308,336.419617 
	C506.598877,336.578217 506.693604,334.519653 506.762390,331.792236 
	C507.051971,320.313232 507.458679,308.837097 507.716064,297.357513 
	C507.781830,294.423431 508.499451,292.654175 511.937073,292.645599 
	C515.204041,292.637451 516.379700,293.952118 516.281494,297.119171 
	C515.744934,314.420807 515.283997,331.724854 514.820129,349.028687 
	C514.592590,357.512390 514.414856,365.997437 514.208496,374.976746 
z"/>
<path fill="#000000" opacity="1.000000" stroke="none" 
	d="
M346.224426,332.869812 
	C345.136444,339.098511 344.986542,344.932770 345.113037,350.759796 
	C345.449554,366.259277 354.852173,376.203918 370.351654,377.626495 
	C390.791260,379.502502 402.472382,368.997131 403.807800,348.541077 
	C405.009674,330.130951 407.111389,311.780548 408.698273,293.393616 
	C408.972168,290.220001 410.594391,289.568207 413.339050,289.730957 
	C416.399017,289.912323 417.335114,291.502533 417.066528,294.348206 
	C415.144104,314.714569 413.596466,335.123047 411.270630,355.442688 
	C409.069641,374.671265 396.561035,385.167633 377.093231,385.402924 
	C369.681824,385.492493 362.455383,384.887573 355.620117,381.785858 
	C343.316681,376.202789 336.946411,366.586029 336.701691,353.137970 
	C336.395142,336.295654 339.144165,319.653595 340.383698,302.911011 
	C340.739746,298.101837 341.463501,293.308990 341.591400,288.497314 
	C341.689148,284.819305 343.041443,283.384949 346.738617,283.770325 
	C350.847839,284.198669 350.280975,287.016876 350.028809,289.668762 
	C348.848145,302.084656 347.601135,314.494202 346.419250,326.909973 
	C346.245911,328.730713 346.295288,330.572662 346.224426,332.869812 
z"/>
<path fill="#000000" opacity="1.000000" stroke="none" 
	d="
M685.359253,288.631470 
	C695.434265,302.048920 705.290344,315.180878 715.167908,328.341461 
	C717.546814,326.821350 717.936768,324.769073 718.685608,322.983429 
	C724.542297,309.017975 730.347412,295.030945 736.186096,281.057922 
	C738.688110,275.070068 740.058655,274.345093 746.886597,275.289307 
	C747.816406,277.258789 746.434082,278.789215 745.759583,280.384277 
	C738.501343,297.549011 731.504211,314.835968 723.721313,331.760986 
	C720.789490,338.136597 722.119751,344.053558 722.778992,350.225769 
	C723.519531,357.159607 724.460388,364.072357 725.347534,370.990021 
	C725.698425,373.725861 725.603821,375.873871 721.947327,376.218445 
	C718.310791,376.561188 717.250793,374.656555 716.892517,371.640259 
	C715.834656,362.733673 714.651306,353.840424 713.724060,344.920471 
	C713.296204,340.804260 711.854553,337.368988 709.301941,334.065735 
	C697.392090,318.653381 685.675354,303.091766 673.898499,287.576691 
	C673.307373,286.797913 672.538147,286.073730 672.699829,284.941162 
	C678.972046,281.581909 680.401611,281.973236 685.359253,288.631470 
z"/>
<path fill="#000000" opacity="1.000000" stroke="none" 
	d="
M205.973465,277.207855 
	C206.624878,274.193665 207.255859,271.606049 207.697998,268.986572 
	C208.173599,266.168884 209.121765,264.270172 212.572464,264.964508 
	C216.027451,265.659729 216.646606,267.580200 215.976700,270.760040 
	C212.207458,288.651581 208.558411,306.568451 204.861252,324.475189 
	C204.357117,326.916962 203.849319,329.359009 203.282135,331.786652 
	C198.237808,353.377441 180.628464,362.781250 159.827759,355.004425 
	C146.491318,350.018219 140.549484,338.808105 143.775177,324.718719 
	C145.203232,318.481201 146.191330,317.874481 152.974960,319.255981 
	C152.973175,323.532043 151.045105,327.571350 151.266342,331.946808 
	C151.589752,338.343231 154.206955,343.273651 159.925949,346.081696 
	C175.228012,353.595184 188.497055,349.647766 193.803009,333.123260 
	C198.433228,318.703247 200.211624,303.589264 203.640808,288.867493 
	C204.507385,285.147247 205.133362,281.370972 205.973465,277.207855 
z"/>
<path fill="#000000" opacity="1.000000" stroke="none" 
	d="
M490.999939,186.277557 
	C482.183319,186.275879 473.866577,186.298706 465.550140,186.258850 
	C462.573761,186.244598 458.788483,186.627975 458.642548,182.479797 
	C458.482880,177.940567 462.556396,178.154358 465.624207,178.125702 
	C478.430664,178.006104 491.238831,178.064346 504.046356,178.062408 
	C516.687622,178.060486 529.328918,178.064133 541.970154,178.067093 
	C542.968079,178.067322 543.976624,177.990234 544.961853,178.105988 
	C547.903381,178.451584 551.634216,178.309143 551.402405,182.559372 
	C551.192566,186.406357 547.734741,186.250549 544.892700,186.255310 
	C527.095093,186.285034 509.297546,186.274521 490.999939,186.277557 
z"/>
</svg>